<svg width="162" height="31" viewBox="0 0 162 31" xmlns="http://www.w3.org/2000/svg">
  <path
    d="M58.4973 16.3254C58.4973 21.6816 54.8785 25.2914 50.4085 25.2914C48.0079 25.2914 45.9386 24.2731 44.7867 22.6286V30.9938H40.7754V7.62413H44.7204V10.1189C45.8366 8.4133 47.9416 7.35938 50.4085 7.35938C54.8785 7.35938 58.4973 10.9743 58.4973 16.3254ZM54.4198 16.3254C54.4198 13.0414 52.381 10.903 49.5523 10.903C46.7235 10.903 44.6847 13.0363 44.6847 16.3254C44.6847 19.6145 46.7235 21.7478 49.5523 21.7478C52.381 21.7478 54.4198 19.6145 54.4198 16.3254Z"
    fill="white" />
  <path
    d="M77.8656 21.7114V25.031H75.7606C73.7524 25.031 72.4068 24.1094 72.0755 22.3682C70.9236 24.1756 68.7217 25.2245 66.1223 25.2245C62.4372 25.2245 59.9092 23.0912 59.9092 20.0007C59.9092 16.9102 62.5749 14.7106 66.9123 14.7106H71.9124V14.12C71.9124 11.8187 70.5974 10.6375 68.2936 10.6375C66.1886 10.6375 64.9041 11.5896 64.6442 13.1985H60.5004C60.8623 9.61921 63.8236 7.35352 68.3904 7.35352C72.9573 7.35352 75.7911 9.84832 75.7911 14.2524V20.3316C75.7911 21.2837 76.2193 21.7114 77.1724 21.7114H77.8605H77.8656ZM71.9124 17.735V17.5059H67.4424C65.1386 17.5059 63.9561 18.3612 63.9561 19.7715C63.9561 21.1819 65.108 22.0729 67.0448 22.0729C69.8379 22.0729 71.9124 20.2349 71.9124 17.735Z"
    fill="white" />
  <path
    d="M97.8254 16.3254C97.8254 21.6816 94.2066 25.2914 89.7367 25.2914C87.336 25.2914 85.2667 24.2731 84.1148 22.6286V30.9938H80.1035V7.62413H84.0485V10.1189C85.1647 8.4133 87.2698 7.35938 89.7367 7.35938C94.2066 7.35938 97.8254 10.9743 97.8254 16.3254ZM93.7479 16.3254C93.7479 13.0414 91.7092 10.903 88.8804 10.903C86.0516 10.903 84.0128 13.0363 84.0128 16.3254C84.0128 19.6145 86.0516 21.7478 88.8804 21.7478C91.7092 21.7478 93.7479 19.6145 93.7479 16.3254Z"
    fill="white" />
  <path
    d="M99.8281 2.59859C99.8281 1.12207 101.046 0.00195312 102.494 0.00195312C103.941 0.00195312 105.159 1.11698 105.159 2.59859C105.159 4.0802 103.941 5.15958 102.494 5.15958C101.046 5.15958 99.8281 4.07511 99.8281 2.59859ZM100.486 25.0315V7.62384H104.497V25.0315H100.486Z"
    fill="white" />
  <path d="M132.285 25.0315V1.05078H136.296V25.0315H132.285Z" fill="white" />
  <path
    d="M151.775 7.625H156.016L148.192 26.3615C147.107 29.1872 145.399 30.9998 142.371 30.9998H139.808V27.4867H141.714C143.36 27.4867 144.451 26.8808 145.012 25.3687L145.103 25.1396L138.131 7.63009H142.438L147.173 20.374L151.775 7.63009V7.625Z"
    fill="white" />
  <path
    d="M127.81 4.33893H130.277V0.953125H126.592C123.238 0.953125 121.495 2.6944 121.495 6.04457V7.66874H117.188C114.951 7.66874 112.978 8.67175 111.959 10.6065V7.61782H108.014V25.0305H112.025V16.6857C112.025 13.0402 113.799 11.2175 117.122 11.2175H121.495V25.0305H125.506V11.2175H130.272V7.66874H125.506V6.59953C125.506 4.92445 126.097 4.33384 127.81 4.33384V4.33893Z"
    fill="white" />
  <path
    d="M32.5947 16.253C32.5947 15.1074 32.1462 14.028 31.3358 13.2185L28.5376 10.4233L21.5191 3.41236C20.301 2.19551 18.6802 1.52344 16.9574 1.52344H5.44859C3.74623 1.52344 2.17128 2.29734 1.12642 3.64148C0.107038 4.96525 -0.244649 6.64034 0.173297 8.24923C0.94293 11.2175 2.42103 13.9618 4.46999 16.2479V16.2683C2.42103 18.5543 0.937833 21.2986 0.173297 24.2669C-0.244649 25.8707 0.107038 27.5509 1.13152 28.8696C2.17638 30.2137 3.75132 30.9876 5.45369 30.9876H16.9625C18.6853 30.9876 20.3061 30.3155 21.5242 29.0987L28.5427 22.0878L31.3409 19.2926C32.1513 18.483 32.5998 17.4036 32.5998 16.2581V16.2479L32.5947 16.253ZM3.82268 7.30222C3.65448 6.6607 3.92972 6.17701 4.1132 5.9479C4.43941 5.5304 4.92361 5.2911 5.45369 5.2911H16.9625C17.6761 5.2911 18.3489 5.57113 18.8535 6.07519L23.8178 10.7491C22.4417 10.1483 20.2806 9.82758 18.8535 9.82758C14.5517 9.82758 10.5098 11.2532 7.2529 13.7022C5.62189 11.8692 4.4445 9.67483 3.82778 7.30731L3.82268 7.30222ZM18.8535 26.4359C18.3489 26.9399 17.6761 27.2199 16.9625 27.2199H5.44859C4.92361 27.2199 4.43431 26.9806 4.10811 26.5631C3.92972 26.334 3.65448 25.8503 3.81758 25.2088C4.42921 22.8413 5.61169 20.6469 7.2427 18.814C10.5047 21.263 14.5415 22.6886 18.8433 22.6886C20.2755 22.6886 22.4315 22.3678 23.8076 21.767L18.8433 26.4409L18.8535 26.4359ZM19.3122 19.0584C15.9584 19.0584 12.7983 18.0299 10.1632 16.253C12.7983 14.4761 15.9584 13.4476 19.3122 13.4476C22.6659 13.4476 25.7699 14.4404 28.4611 16.253C25.775 18.0655 22.5793 19.0584 19.3122 19.0584Z"
    fill="white" />
</svg>